# xmcd
#
# Track frame offsets:
#	150
#	16775
#	32850
#	56800
#	79580
#	104238
#	112905
#	134595
#	156443
#	184828
#
# Disc length: 3024 seconds
#
# Revision: 1
# Processed by: cddbd v1.5.2PL0 Copyright (c) Steve Scherf et al.
# Submitted via: EZCDAudioConverter 8.0.2.1
#
DISCID=870bce0a
DTITLE=Various Artist - Chương Trình New Wave. Hè Cali Kỳ 3
DYEAR=1990
DGENRE=Miscellaneous
TTITLE0=Ngọc Hương - Lonely Tear In China Town
TTITLE1=Ngọc Lan - Sweet Little Shelia
TTITLE2=Lilian - My Lucky Star
TTITLE3=Ngọc Tuyết - Johny Johny
TTITLE4=Ngọc Diễm - Are You Man Enough
TTITLE5=Lilian - T'As Le Look Coco
TTITLE6=Ngọc Lan - Do You Wanna
TTITLE7=Ngọc Tuyết - Femme Public
TTITLE8=Duy Tường - Stop The Rain
TTITLE9=Ngọc Hương - Hey Hello - Angel Sings In N.Y. City
EXTD=
EXTT0=
EXTT1=
EXTT2=
EXTT3=
EXTT4=
EXTT5=
EXTT6=
EXTT7=
EXTT8=
EXTT9=
PLAYORDER=
